<svg width="119" height="19" viewBox="0 0 119 19" fill="none" xmlns="http://www.w3.org/2000/svg">
<g clip-path="url(#clip0_65_2)">
<path fill-rule="evenodd" clip-rule="evenodd" d="M9.81247 14.0549L4.04482 17.8342L5.8569 11.181L0.480225 6.86352L7.36779 6.53094L9.81247 0.083252L12.2571 6.53094L19.1447 6.86352L13.768 11.181L15.5801 17.8342L9.81247 14.0549Z" fill="#FFC54F"/>
</g>
<g clip-path="url(#clip1_65_2)">
<path fill-rule="evenodd" clip-rule="evenodd" d="M34.4375 14.0549L28.6698 17.8342L30.4819 11.181L25.1052 6.86352L31.9928 6.53094L34.4375 0.083252L36.8821 6.53094L43.7697 6.86352L38.393 11.181L40.2051 17.8342L34.4375 14.0549Z" fill="#FFC54F"/>
</g>
<g clip-path="url(#clip2_65_2)">
<path fill-rule="evenodd" clip-rule="evenodd" d="M59.0625 14.0549L53.2948 17.8342L55.1069 11.181L49.7302 6.86352L56.6178 6.53094L59.0625 0.083252L61.5071 6.53094L68.3947 6.86352L63.018 11.181L64.8301 17.8342L59.0625 14.0549Z" fill="#FFC54F"/>
</g>
<g clip-path="url(#clip3_65_2)">
<path fill-rule="evenodd" clip-rule="evenodd" d="M83.6875 14.0549L77.9198 17.8342L79.7319 11.181L74.3552 6.86352L81.2428 6.53094L83.6875 0.083252L86.1321 6.53094L93.0197 6.86352L87.643 11.181L89.4551 17.8342L83.6875 14.0549Z" fill="#FFC54F"/>
</g>
<g clip-path="url(#clip4_65_2)">
<path fill-rule="evenodd" clip-rule="evenodd" d="M108.312 14.0549L102.545 17.8342L104.357 11.181L98.9802 6.86352L105.868 6.53094L108.312 0.083252L110.757 6.53094L117.645 6.86352L112.268 11.181L114.08 17.8342L108.312 14.0549Z" fill="#FFC54F"/>
</g>
<defs>
<clipPath id="clip0_65_2">
<rect width="19.625" height="17.9896" fill="white" transform="translate(0 0.083252)"/>
</clipPath>
<clipPath id="clip1_65_2">
<rect width="19.625" height="17.9896" fill="white" transform="translate(24.625 0.083252)"/>
</clipPath>
<clipPath id="clip2_65_2">
<rect width="19.625" height="17.9896" fill="white" transform="translate(49.25 0.083252)"/>
</clipPath>
<clipPath id="clip3_65_2">
<rect width="19.625" height="17.9896" fill="white" transform="translate(73.875 0.083252)"/>
</clipPath>
<clipPath id="clip4_65_2">
<rect width="19.625" height="17.9896" fill="white" transform="translate(98.5 0.083252)"/>
</clipPath>
</defs>
</svg>
