<svg width="160" height="30" viewBox="0 0 160 30" fill="none" xmlns="http://www.w3.org/2000/svg">
<path d="M4.87552 4.02996C7.0297 2.06809 9.95479 0.92296 12.9194 0.780528C13.9341 0.780528 14.9517 0.786303 15.9664 0.777588C15.9146 1.81525 15.9664 2.85575 15.9359 3.89336C15.7927 6.21276 14.8938 8.47981 13.3795 10.2993C11.4112 12.7466 8.40084 14.3887 5.20459 14.8131C3.80908 15.0281 2.39221 14.8915 0.987629 14.9293C1.01199 13.787 0.935811 12.642 1.03026 11.5026C1.30452 8.67747 2.70307 5.97152 4.87552 4.02996Z" fill="#81818B"/>
<path d="M16.906 0.777588C17.9938 0.789243 19.0816 0.771813 20.1723 0.783416C22.8872 0.966483 25.5655 1.96052 27.6098 3.68415C29.8645 5.52973 31.4095 8.16885 31.8054 10.9882C31.9792 12.296 31.8694 13.6185 31.9366 14.9322C30.9859 14.9293 30.0382 14.9264 29.0875 14.9322C26.7507 14.8712 24.4533 14.1504 22.4971 12.9355C21.5953 12.3193 20.669 11.6944 19.9926 10.8399C18.5087 9.25875 17.5002 7.27362 17.1193 5.18097C16.8329 3.72767 16.9487 2.24538 16.906 0.777588Z" fill="#81818B"/>
<path d="M0.989776 15.7634C1.95567 15.8157 2.92461 15.7198 3.88741 15.8215C8.00992 15.9058 12.0106 18.1147 14.1464 21.4776C15.3714 23.361 16.0295 25.5933 15.9442 27.8107C15.9411 28.5378 15.9533 29.2613 15.932 29.9853C14.4024 29.9412 12.8576 30.0603 11.3432 29.7784C7.97947 29.2382 4.88685 27.3283 3.0251 24.6021C1.61437 22.6198 0.910553 20.1987 0.983686 17.8067C0.983686 17.1236 0.983686 16.4435 0.989776 15.7634Z" fill="#81818B"/>
<path d="M26.7883 16.0714C28.4459 15.7196 30.1548 15.7778 31.8401 15.7778L31.9136 15.8476C31.8768 17.3677 32.0018 18.9052 31.682 20.4078C31.0085 23.7794 28.6685 26.7903 25.5209 28.4441C23.5617 29.4849 21.3131 29.9963 19.0736 29.9732C18.3575 29.9763 17.6384 29.9616 16.9224 29.9816C16.9224 28.7232 16.8676 27.4592 17.0169 26.2061C17.3642 23.1748 19.0827 20.3526 21.5538 18.446C23.0833 17.295 24.881 16.4608 26.7883 16.0714Z" fill="#81818B"/>
<path d="M44.4217 24.3555C44.4217 24.8672 44.2358 25.3 43.8652 25.6544C43.514 25.9891 43.0704 26.1564 42.5343 26.1564C42.0183 26.1564 41.5851 25.9891 41.2344 25.6544C40.8837 25.3 40.7084 24.8672 40.7084 24.3555V6.11191C40.7084 5.60019 40.8837 5.17709 41.2344 4.84256C41.6056 4.48829 42.0597 4.31116 42.5963 4.31116C43.1323 4.31116 43.5654 4.48829 43.8956 4.84256C44.2463 5.17709 44.4217 5.60019 44.4217 6.11191V24.3555Z" fill="#81818B"/>
<path d="M59.3274 10.3628C59.8635 10.3628 60.3071 10.5399 60.6583 10.8941C61.0085 11.2287 61.1838 11.6518 61.1838 12.1635V19.6617C61.1838 21.7478 60.5754 23.4009 59.3584 24.6211C58.1409 25.8413 56.3874 26.4512 54.0969 26.4512C51.8073 26.4512 50.0533 25.8413 48.8364 24.6211C47.6399 23.4009 47.0414 21.7478 47.0414 19.6617V12.1635C47.0414 11.6518 47.2167 11.2287 47.5674 10.8941C47.9181 10.5399 48.3618 10.3628 48.8983 10.3628C49.4349 10.3628 49.878 10.5399 50.2287 10.8941C50.5799 11.2287 50.7552 11.6518 50.7552 12.1635V19.6617C50.7552 20.8622 51.034 21.7576 51.5905 22.348C52.1475 22.9188 52.9833 23.2041 54.0969 23.2041C55.2324 23.2041 56.0777 22.9188 56.6352 22.348C57.1917 21.7576 57.4705 20.8622 57.4705 19.6617V12.1635C57.4705 11.6518 57.6459 11.2287 57.9966 10.8941C58.3473 10.5399 58.7909 10.3628 59.3274 10.3628Z" fill="#81818B"/>
<path d="M72.3532 10.0676C74.0038 10.0676 75.2208 10.4514 76.0051 11.2189C76.7889 11.9668 77.305 12.9409 77.5523 14.1414L77.0262 13.8757L77.274 13.4034C77.5213 12.9507 77.903 12.4686 78.4191 11.9569C78.9346 11.4255 79.5536 10.9828 80.2755 10.6285C81.0183 10.2545 81.8436 10.0676 82.7514 10.0676C84.2371 10.0676 85.3611 10.3727 86.1245 10.9827C86.9088 11.5928 87.4449 12.4095 87.7336 13.4329C88.0229 14.4366 88.1673 15.5584 88.1673 16.7982V24.3554C88.1673 24.8672 87.9919 25.3 87.6407 25.6544C87.29 25.989 86.8469 26.1564 86.3103 26.1564C85.7743 26.1564 85.3302 25.989 84.9795 25.6544C84.6288 25.3 84.4534 24.8672 84.4534 24.3554V16.7982C84.4534 16.1488 84.371 15.5683 84.2061 15.0565C84.0408 14.5251 83.7415 14.102 83.3084 13.7871C82.8753 13.4723 82.2563 13.3148 81.452 13.3148C80.6676 13.3148 79.9972 13.4723 79.4402 13.7871C78.8826 14.102 78.46 14.5251 78.1713 15.0565C77.903 15.5683 77.7686 16.1488 77.7686 16.7982V24.3554C77.7686 24.8672 77.5932 25.3 77.2431 25.6544C76.8924 25.989 76.4482 26.1564 75.9122 26.1564C75.3756 26.1564 74.932 25.989 74.5818 25.6544C74.2306 25.3 74.0553 24.8672 74.0553 24.3554V16.7982C74.0553 16.1488 73.9728 15.5683 73.8075 15.0565C73.6426 14.5251 73.3434 14.102 72.9102 13.7871C72.4771 13.4723 71.8576 13.3148 71.0533 13.3148C70.2695 13.3148 69.5991 13.4723 69.0415 13.7871C68.485 14.102 68.0619 14.5251 67.7731 15.0565C67.5048 15.5683 67.371 16.1488 67.371 16.7982V24.3554C67.371 24.8672 67.1956 25.3 66.8449 25.6544C66.4937 25.989 66.0506 26.1564 65.514 26.1564C64.9775 26.1564 64.5344 25.989 64.1832 25.6544C63.8325 25.3 63.6571 24.8672 63.6571 24.3554V12.1635C63.6571 11.6519 63.8325 11.2287 64.1832 10.8942C64.5344 10.5399 64.9775 10.3628 65.514 10.3628C66.0506 10.3628 66.4937 10.5399 66.8449 10.8942C67.1956 11.2287 67.371 11.6519 67.371 12.1635V13.4329L66.9063 13.3444C67.0922 13.0098 67.3505 12.6555 67.6802 12.2816C68.0104 11.888 68.4126 11.5239 68.8872 11.1893C69.3618 10.8548 69.8878 10.5891 70.4653 10.3923C71.0433 10.1758 71.6728 10.0676 72.3532 10.0676Z" fill="#81818B"/>
<path d="M94.136 24.3555C94.136 24.8672 93.9606 25.3 93.6094 25.6544C93.2592 25.989 92.8156 26.1564 92.279 26.1564C91.743 26.1564 91.2989 25.989 90.9482 25.6544C90.598 25.3 90.4226 24.8672 90.4226 24.3555V12.1635C90.4226 11.6519 90.598 11.2287 90.9482 10.8942C91.2989 10.5399 91.743 10.3628 92.279 10.3628C92.8156 10.3628 93.2592 10.5399 93.6094 10.8942C93.9606 11.2287 94.136 11.6519 94.136 12.1635V24.3555ZM92.2481 8.44396C91.5467 8.44396 91.0516 8.33576 90.7623 8.11925C90.4741 7.90279 90.3297 7.51902 90.3297 6.96798V6.40707C90.3297 5.83639 90.4846 5.45256 90.7933 5.25579C91.1235 5.03928 91.6191 4.93103 92.279 4.93103C93.0014 4.93103 93.507 5.03928 93.7952 5.25579C94.0845 5.47225 94.2289 5.85603 94.2289 6.40707V6.96798C94.2289 7.5387 94.074 7.9323 93.7643 8.14875C93.4556 8.34558 92.9495 8.44396 92.2481 8.44396Z" fill="#81818B"/>
<path d="M105.256 10.0676C106.783 10.0676 107.938 10.3727 108.722 10.9827C109.527 11.5928 110.073 12.4095 110.362 13.4329C110.672 14.4366 110.826 15.5584 110.826 16.7982V24.3554C110.826 24.8672 110.651 25.3 110.3 25.6544C109.95 25.989 109.506 26.1564 108.969 26.1564C108.433 26.1564 107.99 25.989 107.639 25.6544C107.288 25.3 107.112 24.8672 107.112 24.3554V16.7982C107.112 16.1488 107.02 15.5683 106.835 15.0565C106.669 14.5251 106.36 14.102 105.905 13.7871C105.452 13.4723 104.802 13.3148 103.956 13.3148C103.131 13.3148 102.429 13.4723 101.852 13.7871C101.295 14.102 100.862 14.5251 100.552 15.0565C100.263 15.5683 100.118 16.1488 100.118 16.7982V24.3554C100.118 24.8672 99.9435 25.3 99.5928 25.6544C99.2421 25.989 98.798 26.1564 98.262 26.1564C97.7254 26.1564 97.2818 25.989 96.9316 25.6544C96.5804 25.3 96.405 24.8672 96.405 24.3554V12.1635C96.405 11.6519 96.5804 11.2287 96.9316 10.8942C97.2818 10.5399 97.7254 10.3628 98.262 10.3628C98.798 10.3628 99.2421 10.5399 99.5928 10.8942C99.9435 11.2287 100.118 11.6519 100.118 12.1635V13.4329L99.6548 13.3444C99.8406 13.0098 100.108 12.6555 100.459 12.2816C100.81 11.888 101.223 11.5239 101.697 11.1893C102.172 10.8548 102.708 10.5891 103.306 10.3923C103.905 10.1758 104.555 10.0676 105.256 10.0676Z" fill="#81818B"/>
<path d="M129.2 18.2742C129.2 19.888 128.818 21.3149 128.055 22.5547C127.312 23.7749 126.301 24.7294 125.022 25.4181C123.763 26.1072 122.35 26.4512 120.782 26.4512C119.214 26.4512 117.79 26.1072 116.511 25.4181C115.253 24.7294 114.242 23.7749 113.479 22.5547C112.736 21.3149 112.365 19.888 112.365 18.2742C112.365 16.6605 112.736 15.2435 113.479 14.0233C114.242 12.7835 115.253 11.8191 116.511 11.1303C117.79 10.4218 119.214 10.0676 120.782 10.0676C122.35 10.0676 123.763 10.4218 125.022 11.1303C126.301 11.8191 127.312 12.7835 128.055 14.0233C128.818 15.2435 129.2 16.6605 129.2 18.2742ZM125.486 18.2742C125.486 17.2706 125.27 16.4046 124.836 15.6765C124.423 14.9286 123.856 14.3481 123.134 13.9348C122.433 13.5215 121.649 13.3148 120.782 13.3148C119.916 13.3148 119.121 13.5215 118.399 13.9348C117.697 14.3481 117.13 14.9286 116.697 15.6765C116.285 16.4046 116.078 17.2706 116.078 18.2742C116.078 19.2583 116.285 20.1242 116.697 20.8721C117.13 21.6002 117.697 22.1709 118.399 22.5842C119.121 22.9975 119.916 23.2041 120.782 23.2041C121.649 23.2041 122.433 22.9975 123.134 22.5842C123.856 22.1709 124.423 21.6002 124.836 20.8721C125.27 20.1242 125.486 19.2583 125.486 18.2742Z" fill="#81818B"/>
<path d="M143.041 10.3628C143.577 10.3628 144.021 10.5399 144.372 10.8941C144.722 11.2287 144.898 11.6518 144.898 12.1635V19.6617C144.898 21.7478 144.289 23.4009 143.072 24.6211C141.854 25.8413 140.101 26.4512 137.811 26.4512C135.521 26.4512 133.767 25.8413 132.55 24.6211C131.353 23.4009 130.755 21.7478 130.755 19.6617V12.1635C130.755 11.6518 130.93 11.2287 131.281 10.8941C131.632 10.5399 132.075 10.3628 132.612 10.3628C133.148 10.3628 133.592 10.5399 133.943 10.8941C134.293 11.2287 134.469 11.6518 134.469 12.1635V19.6617C134.469 20.8622 134.747 21.7576 135.304 22.348C135.861 22.9188 136.697 23.2041 137.811 23.2041C138.945 23.2041 139.792 22.9188 140.348 22.348C140.906 21.7576 141.184 20.8622 141.184 19.6617V12.1635C141.184 11.6518 141.36 11.2287 141.71 10.8941C142.061 10.5399 142.505 10.3628 143.041 10.3628Z" fill="#81818B"/>
<path d="M146.411 23.706C146.205 23.4305 146.112 23.0762 146.133 22.6433C146.154 22.2103 146.422 21.8364 146.938 21.5215C147.268 21.3247 147.618 21.246 147.99 21.2854C148.361 21.305 148.722 21.4821 149.073 21.8167C149.672 22.3874 150.3 22.8302 150.961 23.1451C151.621 23.46 152.446 23.6174 153.436 23.6174C153.746 23.5977 154.086 23.5584 154.457 23.4993C154.829 23.4206 155.149 23.2632 155.417 23.027C155.705 22.7712 155.85 22.3874 155.85 21.8757C155.85 21.4428 155.695 21.0983 155.386 20.8425C155.076 20.5867 154.664 20.3702 154.148 20.1931C153.653 20.016 153.096 19.8487 152.477 19.6912C151.837 19.5141 151.177 19.3173 150.496 19.1008C149.836 18.8844 149.227 18.6089 148.67 18.2742C148.114 17.92 147.66 17.4575 147.309 16.8868C146.958 16.3161 146.783 15.5977 146.783 14.7318C146.783 13.7478 147.071 12.9114 147.649 12.2226C148.227 11.5338 148.97 11.0024 149.877 10.6285C150.806 10.2545 151.775 10.0676 152.786 10.0676C153.426 10.0676 154.096 10.1463 154.798 10.3038C155.499 10.4415 156.17 10.6777 156.809 11.0123C157.449 11.3271 157.985 11.7503 158.419 12.2816C158.645 12.5768 158.78 12.931 158.821 13.3444C158.862 13.7576 158.666 14.1315 158.233 14.4661C157.924 14.7023 157.563 14.8105 157.15 14.7908C156.738 14.7515 156.397 14.6138 156.129 14.3776C155.778 13.9446 155.304 13.6002 154.705 13.3444C154.127 13.0885 153.457 12.9606 152.693 12.9606C152.384 12.9606 152.044 13 151.672 13.0787C151.322 13.1377 151.012 13.2854 150.744 13.5215C150.476 13.738 150.341 14.0922 150.341 14.5842C150.341 15.0369 150.496 15.4009 150.806 15.6765C151.115 15.9323 151.528 16.1488 152.044 16.3259C152.58 16.4834 153.148 16.6408 153.746 16.7982C154.365 16.9557 154.994 17.1426 155.633 17.3591C156.273 17.5757 156.861 17.8609 157.397 18.2152C157.934 18.5695 158.367 19.0319 158.697 19.6027C159.028 20.1537 159.192 20.8622 159.192 21.7281C159.192 22.7318 158.883 23.588 158.264 24.2964C157.645 25.0049 156.871 25.546 155.943 25.9201C155.014 26.2745 154.065 26.4512 153.096 26.4512C151.879 26.4512 150.662 26.2548 149.444 25.861C148.227 25.4476 147.216 24.7294 146.411 23.706Z" fill="#81818B"/>
</svg>
