<svg width="168" height="38" viewBox="0 0 168 38" fill="none" xmlns="http://www.w3.org/2000/svg">
<path d="M50.2481 10.5348C51.8357 10.5348 53.2096 10.7903 54.3704 11.3014C55.548 11.8124 56.452 12.5378 57.0836 13.4776C57.7152 14.4173 58.0312 15.5301 58.0312 16.816C58.0312 18.0854 57.7152 19.1982 57.0836 20.1544C56.452 21.0941 55.548 21.8195 54.3704 22.3308C53.2096 22.8251 51.8357 23.0725 50.2481 23.0725H46.6387V27.8453H42.4918V10.5348H50.2481ZM50.0182 19.8082C51.2635 19.8082 52.2111 19.5527 52.8595 19.0416C53.5084 18.514 53.8323 17.7722 53.8323 16.816C53.8323 15.8433 53.5084 15.1014 52.8595 14.5904C52.2111 14.0628 51.2635 13.799 50.0182 13.799H46.6387V19.8082H50.0182Z" fill="#81818B"/>
<path d="M63.245 16.2967C63.7222 15.6537 64.3627 15.1674 65.1644 14.8377C65.9839 14.5079 66.9221 14.3431 67.9805 14.3431V17.9041C67.5369 17.8711 67.2382 17.8547 67.0843 17.8547C65.9409 17.8547 65.0452 18.1679 64.3969 18.7944C63.748 19.4043 63.4235 20.3276 63.4235 21.5639V27.8454H59.4304V14.541H63.245V16.2967Z" fill="#81818B"/>
<path d="M75.5038 28.0429C74.0532 28.0429 72.7475 27.7547 71.5873 27.1774C70.4438 26.5841 69.5477 25.7678 68.8993 24.7292C68.2509 23.6906 67.9265 22.5118 67.9265 21.1931C67.9265 19.8742 68.2509 18.6954 68.8993 17.6568C69.5477 16.6182 70.4438 15.8104 71.5873 15.2334C72.7475 14.6399 74.0532 14.3431 75.5038 14.3431C76.9544 14.3431 78.2516 14.6399 79.3951 15.2334C80.5385 15.8104 81.4347 16.6182 82.0836 17.6568C82.7315 18.6954 83.0559 19.8742 83.0559 21.1931C83.0559 22.5118 82.7315 23.6906 82.0836 24.7292C81.4347 25.7678 80.5385 26.5841 79.3951 27.1774C78.2516 27.7547 76.9544 28.0429 75.5038 28.0429ZM75.5038 24.8776C76.5281 24.8776 77.3644 24.5482 78.0128 23.8885C78.6785 23.2127 79.0108 22.3143 79.0108 21.1931C79.0108 20.072 78.6785 19.1818 78.0128 18.5223C77.3644 17.8464 76.5281 17.5084 75.5038 17.5084C74.48 17.5084 73.6353 17.8464 72.9696 18.5223C72.3039 19.1818 71.971 20.072 71.971 21.1931C71.971 22.3143 72.3039 23.2127 72.9696 23.8885C73.6353 24.5482 74.48 24.8776 75.5038 24.8776Z" fill="#81818B"/>
<path d="M101.163 10.5348V27.8453H97.758L88.823 17.3353V27.8453H84.727V10.5348H88.1573L97.0666 21.0447V10.5348H101.163Z" fill="#81818B"/>
<path d="M109.396 14.3431C111.529 14.3431 113.168 14.8377 114.311 15.8269C115.455 16.7996 116.026 18.2751 116.026 20.2534V27.8454H112.289V26.1883C111.538 27.4248 110.139 28.0429 108.091 28.0429C107.032 28.0429 106.11 27.8701 105.325 27.5238C104.558 27.1774 103.969 26.6996 103.559 26.0894C103.15 25.4795 102.944 24.7869 102.944 24.0122C102.944 22.7757 103.423 21.8031 104.378 21.0942C105.351 20.3853 106.845 20.0308 108.859 20.0308H112.033C112.033 19.19 111.769 18.5471 111.239 18.1019C110.71 17.6403 109.916 17.4095 108.859 17.4095C108.125 17.4095 107.399 17.5249 106.682 17.7557C105.983 17.9701 105.385 18.2668 104.89 18.646L103.457 15.9505C104.208 15.4394 105.103 15.0438 106.144 14.7635C107.203 14.4833 108.287 14.3431 109.396 14.3431ZM109.089 25.4466C109.772 25.4466 110.377 25.2982 110.906 25.0013C111.435 24.6879 111.811 24.2348 112.033 23.6411V22.2813H109.294C107.655 22.2813 106.836 22.8004 106.836 23.839C106.836 24.3338 107.032 24.7292 107.425 25.0261C107.834 25.3064 108.389 25.4466 109.089 25.4466Z" fill="#81818B"/>
<path d="M127.244 27.2021C126.852 27.4825 126.365 27.6969 125.785 27.8453C125.222 27.9768 124.624 28.0428 123.993 28.0428C122.355 28.0428 121.083 27.6392 120.179 26.8315C119.291 26.0234 118.847 24.8363 118.847 23.2704V17.8052H116.723V14.8377H118.847V11.5981H122.841V14.8377H126.271V17.8052H122.841V23.2209C122.841 23.7812 122.986 24.2183 123.276 24.5316C123.583 24.8281 124.01 24.9765 124.556 24.9765C125.188 24.9765 125.725 24.8116 126.169 24.4822L127.244 27.2021Z" fill="#81818B"/>
<path d="M142.082 14.541V27.8454H138.293V26.2626C137.764 26.8394 137.132 27.2847 136.398 27.598C135.664 27.8949 134.871 28.0429 134.017 28.0429C132.208 28.0429 130.775 27.5403 129.716 26.5347C128.658 25.5291 128.129 24.037 128.129 22.0588V14.541H132.123V21.4898C132.123 23.6329 133.053 24.7045 134.913 24.7045C135.869 24.7045 136.637 24.408 137.218 23.8143C137.797 23.2045 138.087 22.3061 138.087 21.119V14.541H142.082Z" fill="#81818B"/>
<path d="M148.316 16.2967C148.793 15.6537 149.434 15.1674 150.235 14.8377C151.054 14.5079 151.994 14.3431 153.052 14.3431V17.9041C152.608 17.8711 152.309 17.8547 152.156 17.8547C151.012 17.8547 150.116 18.1679 149.468 18.7944C148.819 19.4043 148.495 20.3276 148.495 21.5639V27.8454H144.501V14.541H148.316V16.2967Z" fill="#81818B"/>
<path d="M167.513 21.2427C167.513 21.2918 167.487 21.6381 167.436 22.2813H157.017C157.204 23.1055 157.648 23.7565 158.348 24.2348C159.048 24.7127 159.918 24.9518 160.959 24.9518C161.676 24.9518 162.307 24.8529 162.853 24.655C163.417 24.441 163.937 24.1111 164.415 23.6658L166.54 25.8915C165.243 27.3259 163.348 28.0429 160.856 28.0429C159.304 28.0429 157.93 27.7547 156.735 27.1774C155.54 26.5841 154.619 25.7678 153.97 24.7292C153.321 23.6906 152.997 22.5118 152.997 21.1931C152.997 19.8907 153.313 18.7202 153.945 17.6816C154.593 16.6264 155.472 15.8104 156.581 15.2334C157.708 14.6399 158.962 14.3431 160.345 14.3431C161.693 14.3431 162.913 14.6234 164.006 15.1839C165.098 15.7444 165.951 16.5522 166.566 17.6074C167.197 18.646 167.513 19.8577 167.513 21.2427ZM160.37 17.2611C159.466 17.2611 158.706 17.5084 158.092 18.003C157.477 18.4976 157.102 19.1736 156.965 20.0308H163.749C163.613 19.19 163.237 18.5223 162.623 18.0277C162.009 17.5167 161.258 17.2611 160.37 17.2611Z" fill="#81818B"/>
<path fill-rule="evenodd" clip-rule="evenodd" d="M19.748 0.894558C19.1395 0.554516 18.3892 0.554516 17.7807 0.894558C13.4587 3.30961 10.5437 7.82824 10.5437 13.0068C10.5437 13.7449 10.6029 14.4695 10.717 15.1767C7.74173 14.2006 4.52022 14.5558 1.88892 16.0204C1.27987 16.3594 0.904705 16.987 0.905335 17.6661C0.908433 21.2485 2.83497 24.7399 6.28527 26.6641C7.97798 27.6083 9.82551 28.0569 11.6479 28.0577C11.3706 28.8167 11.2197 29.6331 11.2197 30.4837C11.2197 34.5086 14.5975 37.771 18.764 37.771C22.9308 37.771 26.3083 34.5086 26.3083 30.4837C26.3083 29.631 26.1568 28.813 25.8785 28.0528C27.5922 28.0004 29.3183 27.551 30.9078 26.6641C34.3585 24.7399 36.2847 21.2485 36.2873 17.6662C36.2884 16.9872 35.913 16.3596 35.304 16.0205C32.7767 14.6136 29.7042 14.2305 26.829 15.0677C26.9319 14.3951 26.9848 13.707 26.9848 13.0068C26.9848 7.82824 24.07 3.30961 19.748 0.894558ZM14.4724 13.0068C14.4724 9.644 16.158 6.65969 18.7643 4.80208C21.3707 6.65969 23.0563 9.644 23.0563 13.0068C23.0563 16.3696 21.3707 19.3539 18.7643 21.2115C16.158 19.3539 14.4724 16.3696 14.4724 13.0068ZM26.5115 19.3087C28.3255 18.297 30.4217 18.1793 32.2527 18.8195C31.9115 20.6714 30.7576 22.3659 28.9435 23.3776C27.1295 24.3894 25.0334 24.5069 23.2023 23.867C23.5438 22.0149 24.6974 20.3205 26.5115 19.3087ZM4.94043 18.8194C6.77142 18.1792 8.86754 18.2969 10.6816 19.3086C12.4957 20.3203 13.6492 22.0149 13.9909 23.8666C12.1598 24.5069 10.0637 24.3894 8.24961 23.3776C6.43558 22.3659 5.282 20.6712 4.94043 18.8194ZM15.1485 30.4837C15.1485 28.5549 16.7672 26.991 18.764 26.991C20.7609 26.991 22.3798 28.5549 22.3798 30.4837C22.3798 32.4124 20.7609 33.9763 18.764 33.9763C16.7672 33.9763 15.1485 32.4124 15.1485 30.4837Z" fill="#81818B"/>
</svg>
