<svg width="164" height="35" viewBox="0 0 164 35" fill="none" xmlns="http://www.w3.org/2000/svg">
<path fill-rule="evenodd" clip-rule="evenodd" d="M6.23545 8.97047C8.97579 5.46825 13.364 3.1993 18.3099 3.1993C23.2849 3.1993 27.6955 5.49502 30.4325 9.03237C30.316 9.14619 30.2099 9.26416 30.1139 9.38197C29.6125 9.99884 29.2353 10.7934 28.9331 11.6003C28.3245 13.2231 27.8603 15.3429 27.4305 17.3278L27.3923 17.5063C26.9635 19.4876 26.5649 21.3303 26.083 22.6982C25.8665 23.3127 25.6611 23.7472 25.4791 24.0254C25.2891 23.7449 25.0735 23.3052 24.8453 22.6818C24.3299 21.2747 23.8963 19.3607 23.4368 17.317L23.4219 17.2501V17.25C22.9803 15.2871 22.5118 13.2043 21.9277 11.61C21.6343 10.8091 21.2742 10.0225 20.8033 9.41131C20.3411 8.81155 19.5718 8.13467 18.4466 8.13467C17.3285 8.13467 16.5557 8.8042 16.0868 9.39724C15.6068 10.0045 15.2326 10.7878 14.9243 11.5891C14.3034 13.2026 13.7959 15.3133 13.3235 17.301L13.2747 17.5063C12.8069 19.4753 12.3697 21.3162 11.8733 22.6867C11.6838 23.21 11.505 23.6083 11.3431 23.8927C11.1849 23.6096 11.0106 23.214 10.8263 22.6951C10.3501 21.3538 9.93292 19.5644 9.48488 17.6426L9.40645 17.3063C8.94224 15.3174 8.43861 13.2029 7.80893 11.5843C7.49608 10.7801 7.11341 9.9928 6.61823 9.38275C6.50609 9.24468 6.37867 9.1045 6.23545 8.97047ZM4.57692 11.6596C4.70744 11.9045 4.84551 12.208 4.98826 12.575C5.53331 13.976 5.99505 15.8877 6.47054 17.9249L6.5631 18.3219C6.99602 20.1807 7.44636 22.1144 7.97682 23.6083C8.25895 24.4028 8.59968 25.181 9.03784 25.7858C9.45223 26.3578 10.1956 27.0967 11.3387 27.0967C12.4785 27.0967 13.2236 26.3614 13.6408 25.792C14.0828 25.1886 14.4291 24.4112 14.7169 23.6162C15.2687 22.0927 15.7385 20.1138 16.1881 18.2199V18.2198L16.2569 17.9303C16.7413 15.8918 17.2076 13.9763 17.7487 12.5702C17.9993 11.9187 18.234 11.4649 18.4383 11.1833C18.6319 11.4625 18.8531 11.9091 19.0877 12.5493C19.6033 13.9566 20.0364 15.8705 20.496 17.9142L20.5111 17.9811C20.9526 19.9441 21.4211 22.027 22.0051 23.6211C22.2986 24.4223 22.6587 25.2089 23.1296 25.8199C23.5918 26.4198 24.3611 27.0967 25.486 27.0967C26.617 27.0967 27.3835 26.4136 27.8402 25.8084C28.304 25.1943 28.6528 24.4051 28.9345 23.6052C29.476 22.0687 29.9065 20.0752 30.317 18.1788V18.1787L30.3758 17.9034C30.8179 15.8622 31.2421 13.9558 31.766 12.559C31.8794 12.2551 31.9913 11.996 32.0978 11.7784C32.9006 13.5265 33.3458 15.4567 33.3458 17.4857C33.3458 25.3757 26.6143 31.7721 18.3099 31.7721C10.0058 31.7721 3.27392 25.3757 3.27392 17.4857C3.27392 15.4106 3.73955 13.4388 4.57692 11.6596ZM18.3099 0.342041C8.34495 0.342041 0.266724 8.01749 0.266724 17.4857C0.266724 26.9538 8.34495 34.6292 18.3099 34.6292C28.2752 34.6292 36.353 26.9538 36.353 17.4857C36.353 8.01749 28.2752 0.342041 18.3099 0.342041ZM18.6537 10.9442C18.6537 10.9445 18.6502 10.9472 18.6431 10.9511C18.6501 10.9458 18.6537 10.9438 18.6537 10.9442ZM18.2381 10.9461C18.2311 10.9421 18.2276 10.9393 18.2276 10.9389C18.2276 10.9385 18.2311 10.9406 18.2381 10.9461ZM25.2574 24.2966C25.2574 24.2966 25.2607 24.2935 25.2672 24.2896C25.2607 24.2949 25.2574 24.2971 25.2574 24.2966ZM25.6946 24.2851C25.7016 24.2891 25.7053 24.2918 25.7053 24.2922C25.7053 24.2926 25.7016 24.2904 25.6946 24.2851ZM11.0305 24.3223C11.0305 24.3218 11.0348 24.3178 11.0435 24.3121C11.0349 24.3196 11.0305 24.3227 11.0305 24.3223ZM11.6395 24.3148C11.6481 24.3205 11.6524 24.3245 11.6524 24.3249C11.6524 24.3254 11.648 24.3227 11.6395 24.3148Z" fill="#81818B"/>
<path d="M46.3159 27.6351L41.9406 13.4144H45.7731L48.3681 23.6498L51.3853 13.4144H55.6703L58.688 23.6498L61.313 13.4144H65.1455L60.7397 27.6351H56.7267L53.5278 16.9982L50.3295 27.6351H46.3159Z" fill="#81818B"/>
<path d="M70.7688 27.9793C69.4815 27.9793 68.4252 27.7877 67.6004 27.4055C66.7762 27.0042 66.1625 26.4786 65.7598 25.8287C65.3576 25.1788 65.1566 24.4621 65.1566 23.6785C65.1566 22.3597 65.6994 21.2893 66.7856 20.4674C67.8719 19.6455 69.502 19.2346 71.6744 19.2346H75.4765V18.8905C75.4765 17.9157 75.1846 17.199 74.6013 16.7402C74.018 16.2815 73.2935 16.0522 72.4289 16.0522C71.644 16.0522 70.9599 16.2337 70.3766 16.5969C69.7934 16.9409 69.4311 17.457 69.2904 18.1451H65.5183C65.6191 17.113 65.9813 16.2146 66.6045 15.45C67.2487 14.6855 68.0735 14.1025 69.0788 13.7012C70.0853 13.2807 71.2114 13.0704 72.4588 13.0704C74.5913 13.0704 76.2708 13.5769 77.4983 14.5899C78.7252 15.603 79.3389 17.0366 79.3389 18.8905V27.6351H76.0493L75.6875 25.3416C75.245 26.1061 74.6213 26.7366 73.817 27.2338C73.0321 27.7306 72.0162 27.9793 70.7688 27.9793ZM71.644 25.112C72.7507 25.112 73.6054 24.7678 74.2086 24.0798C74.8323 23.3919 75.225 22.5411 75.3862 21.5282H72.0965C71.0707 21.5282 70.3367 21.7098 69.8936 22.0729C69.4516 22.4168 69.23 22.8472 69.23 23.3631C69.23 23.9175 69.4516 24.3475 69.8936 24.6532C70.3367 24.9589 70.9195 25.112 71.644 25.112Z" fill="#81818B"/>
<path d="M85.4189 27.6351L79.9274 13.4144H83.9704L87.7725 24.1661L91.5746 13.4144H95.6181L90.0962 27.6351H85.4189Z" fill="#81818B"/>
<path d="M103.382 27.9793C101.874 27.9793 100.536 27.6732 99.3693 27.0617C98.2027 26.4499 97.2876 25.5898 96.6235 24.4811C95.9594 23.3728 95.6281 22.092 95.6281 20.6394C95.6281 19.1677 95.9499 17.8584 96.5931 16.7116C97.2572 15.5648 98.1623 14.676 99.3094 14.0452C100.475 13.3954 101.844 13.0704 103.413 13.0704C104.881 13.0704 106.179 13.3762 107.306 13.9879C108.432 14.5995 109.308 15.4405 109.931 16.5109C110.574 17.5621 110.897 18.7376 110.897 20.0373C110.897 20.2476 110.886 20.4674 110.866 20.6967C110.866 20.9262 110.856 21.165 110.836 21.4135H99.4601C99.5404 22.5221 99.9431 23.3919 100.667 24.0228C101.411 24.6532 102.307 24.9687 103.353 24.9687C104.137 24.9687 104.791 24.8063 105.314 24.4811C105.857 24.1373 106.259 23.6976 106.521 23.1622H110.444C110.162 24.0608 109.689 24.8828 109.026 25.6283C108.381 26.3543 107.577 26.9277 106.611 27.3484C105.666 27.7687 104.589 27.9793 103.382 27.9793ZM103.413 16.0522C102.468 16.0522 101.633 16.3102 100.908 16.8262C100.184 17.3232 99.7215 18.0878 99.5199 19.1199H106.973C106.913 18.1833 106.551 17.4379 105.887 16.8836C105.223 16.3293 104.399 16.0522 103.413 16.0522Z" fill="#81818B"/>
<path d="M112.938 27.635V6.99219H116.8V27.635H112.938Z" fill="#81818B"/>
<path d="M126.811 27.9793C125.303 27.9793 123.965 27.6732 122.798 27.0617C121.632 26.4499 120.717 25.5898 120.053 24.4811C119.389 23.3728 119.057 22.092 119.057 20.6394C119.057 19.1677 119.379 17.8584 120.022 16.7116C120.686 15.5648 121.591 14.676 122.739 14.0452C123.905 13.3954 125.273 13.0704 126.842 13.0704C128.31 13.0704 129.608 13.3762 130.735 13.9879C131.861 14.5995 132.737 15.4405 133.36 16.5109C134.003 17.5621 134.326 18.7376 134.326 20.0373C134.326 20.2476 134.315 20.4674 134.295 20.6967C134.295 20.9262 134.285 21.165 134.265 21.4135H122.889C122.97 22.5221 123.372 23.3919 124.096 24.0228C124.84 24.6532 125.736 24.9687 126.782 24.9687C127.566 24.9687 128.22 24.8063 128.743 24.4811C129.286 24.1373 129.688 23.6976 129.95 23.1622H133.873C133.591 24.0608 133.118 24.8828 132.455 25.6283C131.811 26.3543 131.006 26.9277 130.04 27.3484C129.095 27.7687 128.019 27.9793 126.811 27.9793ZM126.842 16.0522C125.897 16.0522 125.062 16.3102 124.337 16.8262C123.613 17.3232 123.151 18.0878 122.949 19.1199H130.402C130.342 18.1833 129.98 17.4379 129.316 16.8836C128.652 16.3293 127.828 16.0522 126.842 16.0522Z" fill="#81818B"/>
<path d="M142.553 27.9793C141.225 27.9793 140.058 27.7784 139.053 27.3772C138.047 26.9564 137.242 26.3831 136.638 25.6566C136.035 24.9306 135.673 24.0896 135.552 23.134H139.445C139.565 23.6878 139.888 24.1661 140.411 24.5674C140.953 24.9496 141.648 25.1408 142.492 25.1408C143.337 25.1408 143.951 24.9784 144.333 24.6532C144.736 24.3285 144.937 23.9555 144.937 23.5352C144.937 22.9234 144.655 22.5124 144.092 22.3022C143.529 22.0729 142.744 21.8532 141.738 21.6429C141.095 21.5091 140.441 21.3466 139.777 21.1555C139.113 20.9644 138.5 20.7254 137.936 20.4388C137.393 20.1329 136.95 19.7506 136.608 19.2919C136.266 18.814 136.096 18.2311 136.096 17.543C136.096 16.2815 136.619 15.2207 137.665 14.3606C138.731 13.5005 140.219 13.0704 142.131 13.0704C143.901 13.0704 145.309 13.4622 146.355 14.2459C147.421 15.0296 148.055 16.1095 148.256 17.4857H144.605C144.383 16.4344 143.549 15.9088 142.101 15.9088C141.376 15.9088 140.813 16.0426 140.411 16.3102C140.028 16.5778 139.837 16.9122 139.837 17.3136C139.837 17.7342 140.129 18.0686 140.712 18.3171C141.296 18.5656 142.07 18.7949 143.036 19.0052C144.081 19.2346 145.037 19.4926 145.902 19.7793C146.787 20.0469 147.491 20.4579 148.015 21.0122C148.538 21.5473 148.799 22.3212 148.799 23.3343C148.82 24.2139 148.578 25.0067 148.075 25.7141C147.572 26.4211 146.848 26.9754 145.902 27.3772C144.957 27.7784 143.84 27.9793 142.553 27.9793Z" fill="#81818B"/>
<path d="M157.2 27.9793C155.872 27.9793 154.705 27.7784 153.699 27.3772C152.693 26.9564 151.889 26.3831 151.285 25.6566C150.682 24.9306 150.319 24.0896 150.199 23.134H154.092C154.212 23.6878 154.534 24.1661 155.057 24.5674C155.6 24.9496 156.294 25.1408 157.139 25.1408C157.984 25.1408 158.598 24.9784 158.98 24.6532C159.382 24.3285 159.584 23.9555 159.584 23.5352C159.584 22.9234 159.302 22.5124 158.738 22.3022C158.176 22.0729 157.391 21.8532 156.385 21.6429C155.741 21.5091 155.087 21.3466 154.423 21.1555C153.76 20.9644 153.146 20.7254 152.583 20.4388C152.04 20.1329 151.597 19.7506 151.255 19.2919C150.913 18.814 150.742 18.2311 150.742 17.543C150.742 16.2815 151.265 15.2207 152.311 14.3606C153.378 13.5005 154.866 13.0704 156.777 13.0704C158.547 13.0704 159.955 13.4622 161.002 14.2459C162.067 15.0296 162.701 16.1095 162.903 17.4857H159.251C159.03 16.4344 158.195 15.9088 156.747 15.9088C156.023 15.9088 155.459 16.0426 155.057 16.3102C154.675 16.5778 154.484 16.9122 154.484 17.3136C154.484 17.7342 154.775 18.0686 155.359 18.3171C155.942 18.5656 156.717 18.7949 157.682 19.0052C158.728 19.2346 159.684 19.4926 160.549 19.7793C161.434 20.0469 162.138 20.4579 162.661 21.0122C163.184 21.5473 163.446 22.3212 163.446 23.3343C163.466 24.2139 163.224 25.0067 162.722 25.7141C162.219 26.4211 161.495 26.9754 160.549 27.3772C159.604 27.7784 158.487 27.9793 157.2 27.9793Z" fill="#81818B"/>
</svg>
